<svg id="Vrstva_1" data-name="Vrstva 1" xmlns="http://www.w3.org/2000/svg" viewBox="0 0 861.7323 189.9213"><rect width="861.7323" height="189.9213" style="fill:#fff;opacity:0"/><path d="M76.129,111.9667c6.0586,0,9.8342-.0883,14.312-.3491.7021-.0883.9669.1766.9669.61,0,4.0966.0883,6.2753.0883,10.7209,0,.5216-.1765.7864-1.5808.7864-6.8491,0-12.3821-.2648-15.1024-.2648-5.4448,0-15.8928.3491-18.9663.3491-.6139,0-.79-.1725-.79-.61.0883-3.31.0883-6.7086.0883-10.1953,0-.7864.1765-1.308.8787-1.308,4.04,0,8.3416.2608,20.1057.2608M67.2618,107.26c-4.8268,0-11.062.2608-11.4993.1726-.4414-.0843-.53-.5216-.53-1.0432,0-.7865.0883-3.226.0883-8.7188,0-11.5034-.2648-23.2715-.6139-33.9924,0-.5216.2648-.959.6139-.959,4.217-.1725,7.2864-.2608,11.8524-.2608.6139,0,.967.1726.967,1.5688,0,2.0062.1765,4.7065.1765,10.1111,0,9.6737-.1765,25.8875-.3531,32.4236,0,.4373-.1765.6981-.7021.6981" transform="translate(0 0)" style="fill:#13a538"/><path d="M140.0449,62.5236c.4414,0,.7022.0883.79.5256.5257,3.7476.0883,9.4129.0883,10.8935a.4148.4148,0,0,1-.4373.4373c-5.9744.0883-13.4333.0883-19.845,0a.6443.6443,0,0,1-.7021-.6981c0-3.575-.3491-7.3225-.0883-9.9385.0883-.7824.3531-.959.79-.959,14.6611,0,18.1758-.2608,19.4036-.2608m-15.54,60.9272c-4.566,0-5.0074-.1726-5.0917-.61a35.5907,35.5907,0,0,1-.2648-4.9673c0-2.5277.0883-4.7947.0883-5.232,0-.3491.0883-.4334.3531-.4334h2.5438c2.6321,0,5.533.0843,8.0768.0843,5.7938,0,7.3747-.2608,8.9555-.2608.79,0,1.0553.1765,1.1435.8747a29.4933,29.4933,0,0,1,.2608,4.6182c0,2.0061.0883,3.3984.0883,4.883,0,.7824-.1725,1.0432-1.316,1.1314-3.8639.3491-11.7642-.0882-14.8376-.0882m-9.8342-.8707c0,.5216-.5256.7824-1.1435.7824-3.4225,0-6.7568.1765-10.7972.1765-.7021,0-.8787-.5216-.8787-1.308,0-14.0311.6139-31.7254.6139-44.276,0-9.3286-.1725-12.9036-.1725-14.2116,0-.5216.0882-.959.5256-1.0432.4373-.0883,7.0256.1725,11.8524.1725.5256,0,.7021.2608.7021.6981,0,8.1932.0883,15.5157-.2648,23.36a48.1734,48.1734,0,0,0,5.7978.2608c4.8269,0,9.746.1765,13.7824.1765,2.9851,0,4.3895-.1765,5.0073-.1765.6139,0,.7905.2608.8747,1.7453.0883,1.4806.4414,6.6244.4414,9.0639,0,.6981-.2648.9589-.79.9589-8.0768,0-16.86-.7864-25.4622-.5256.349,2.5318,0,12.9879-.0883,24.1462" transform="translate(0 0)" style="fill:#13a538"/><path d="M176.48,73.6959c.0883-3.5749.2648-7.15.1766-10.3718,0-.5256.2648-.7864.6139-.7864,4.04-.0883,6.849-.2608,8.0768-.2608a7.0981,7.0981,0,0,1,3.5107,1.22c6.6766,4.1849,8.1691,15.6882,8.1691,19.7848,0,.6981-.2648.9589-.9669.9589-3.4266,0-8.0768-.4333-12.1173-.5216a.4927.4927,0,0,1-.5256-.4373,82.4275,82.4275,0,0,1-.0882-9.4129c-1.4044.0882-3.8639.1765-6.3235.1765-.349,0-.5256-.0883-.5256-.3491m-1.7574,24.9286a72.5821,72.5821,0,0,0,3.1617-9.5894c.1766-.5217.2649-.6982,1.6692-.2609,5.0916,1.7414,10.5363,3.7476,14.0471,4.9673,1.6691.61,2.1105,1.0472,2.8969,3.3142a16.4635,16.4635,0,0,1,.6179,4.7064c0,7.9324-1.32,14.2919-5.3565,18.7376-2.3712,2.616-3.1617,3.1376-5.3564,3.1376-1.1435,0-2.9852-.0842-5.3565-.0842-1.316,0-2.8086.0842-4.04.0842-.349,0-.5256-.2608-.5256-.61-.0882-2.9611-.1765-6.2753,0-9.5012.0883-.955.2648-1.1315.5256-1.1315,1.8457,0,4.04.0883,6.1469.2608a73.7292,73.7292,0,0,1,.3531-9.762c-2.8086-1.0472-5.7095-1.9179-8.6064-2.8768-.7022-.2608-.5256-.5216-.1766-1.3923M173.671,87.727c-1.316,3.7475-2.0182,7.2343-2.8086,9.3287-.53,1.5688-.8787,1.6531-1.4043,1.48-4.217-1.308-8.8673-2.9651-13.8747-5.0555-2.46-1.0472-2.6361-1.3963-3.1617-2.5278a20.0289,20.0289,0,0,1-1.0512-7.495c0-8.63,5.2682-18.1317,9.9185-20.5712a3.5863,3.5863,0,0,1,1.9339-.5216c2.283,0,5.0916.1726,8.43.2608.2608,0,.3491.2608.4373.959.0883,1.7413.2649,6.3635.1766,9.9345,0,.3491-.1766.5256-.3531.5256a63.6836,63.6836,0,0,1-7.1981-.5256c-.0883,2.8768-.0883,7.76-.2648,10.6367,2.5478.7824,5.7095,1.7413,8.6947,2.7885.5256.1726.6139.4334.5256.7824m-1.6691,25.0169c.0882,3.3984.1765,7.6715.0882,10.1993,0,.5216-.0882.6941-.4373.6941-3.5991.0883-5.3565.2648-7.5512.2648a5.51,5.51,0,0,1-3.599-.9589c-6.0587-3.8358-9.3969-12.2055-9.3969-18.3042,0-1.6571.1765-2.0062.6139-2.0062,1.2277,0,2.8969.3491,8.3416.3491,1.8457,0,3.3382-.0883,4.1247-.0883.4413,0,.53.1766.53.5256a80.3164,80.3164,0,0,0,.2608,9.0639c2.5478-.0883,4.566-.2608,6.6765-.2608.2608,0,.3491.1725.3491.5216" transform="translate(0 0)" style="fill:#13a538"/><path d="M243.6387,62.502c.4413,0,.7021.0882.79.5256.5256,3.7475.0883,9.4129.0883,10.8934a.415.415,0,0,1-.4374.4374c-5.97.0882-13.4332.0882-19.8449,0a.6444.6444,0,0,1-.7022-.6982c0-3.575-.349-7.3225-.0882-9.9385.0882-.7824.353-.9589.79-.9589,14.661,0,18.1758-.2608,19.4036-.2608m-15.54,60.9271c-4.5661,0-5.0074-.1725-5.0917-.61a35.5891,35.5891,0,0,1-.2648-4.9672c0-2.5278.0883-4.7948.0883-5.2321,0-.3491.0883-.4333.3531-.4333h2.5438c2.6321,0,5.533.0842,8.0768.0842,5.7938,0,7.3746-.2608,8.9555-.2608.79,0,1.0552.1766,1.1435.8747a29.5067,29.5067,0,0,1,.2608,4.6182c0,2.0061.0883,3.3984.0883,4.883,0,.7824-.1726,1.0432-1.3161,1.1315-3.8638.349-11.7641-.0883-14.8375-.0883m-9.8342-.8707c0,.5216-.5257.7824-1.1436.7824-3.4225,0-6.7567.1766-10.7971.1766-.7022,0-.8787-.5216-.8787-1.3081,0-14.0311.6139-31.7254.6139-44.2759,0-9.3287-.1766-12.9037-.1766-14.2117,0-.5216.0923-.9589.53-1.0432.4374-.0883,7.0256.1725,11.8525.1725.5256,0,.7021.2608.7021.6982,0,8.1931.0883,15.5156-.2648,23.36A48.1052,48.1052,0,0,0,224.5,87.17c4.8268,0,9.7459.1766,13.7823.1766,2.9852,0,4.3895-.1766,5.0074-.1766.6139,0,.79.2608.8747,1.7454.0883,1.4805.4414,6.6243.4414,9.0638,0,.6982-.2649.959-.7905.959-8.0768,0-16.86-.7864-25.4622-.5256.3491,2.5317,0,12.9878-.0882,24.1461" transform="translate(0 0)" style="fill:#13a538"/><path d="M288.4993,92.3978c0-10.1111-.6139-25.9718-.6139-28.9369,0-.6981.0883-.8707.7021-.8707,1.2278-.0882,4.1287-.1765,6.7608-.1765,2.0182,0,3.5991.0883,4.7426.1765.4373,0,.5256.3491.5256.959,0,8.3657-.1766,35.3.0883,59.3583,0,.345-.2649.5216-.8787.5216-2.8969,0-7.5512.2608-10.4481.2608-.5256,0-1.0553-.1725-1.0553-.7824-.1725-6.8892.1766-19.7888.1766-30.51M256.4528,63.2c-.1765-.3491,0-.61.2649-.61,3.1577,0,8.9555.2608,11.6758.2608a1.5916,1.5916,0,0,1,1.5809.8707c1.2278,2.0944,4.566,9.3287,9.3046,19.0024,1.32,2.616,2.7243,5.228,4.04,7.5833a7.9366,7.9366,0,0,1,.5256,3.2259c.0883,2.612.0883,4.9672.1765,7.1459,0,2.8769.0883,9.1521-.0882,15.5157,0,.8706-.0883,1.0472-.2609,1.0472-.2648,0-.53-.3491-.7061-.6982-2.279-4.2731-4.3895-8.4539-6.496-12.55C269.71,90.829,261.9858,75.49,256.4528,63.2m-.5256,10.3719c.1726,0,.3491.1765.5256.4373,3.5108,6.4478,7.1139,14.2919,10.6247,21.177a6.4144,6.4144,0,0,1,.6139,2.8769c0,8.98.1765,20.05.1765,24.9285,0,.4374-.1765.5257-.79.61-.7905.0883-2.5479.1766-5.18.1766-2.3713,0-4.9191,0-6.496-.1766-.3531,0-.4413-.2608-.4413-.8707.7021-18.914.349-36.2593.6138-48.5491,0-.349.0883-.61.3531-.61" transform="translate(0 0)" style="fill:#13a538"/><path d="M319.9005,62.5806c2.0182,0,3.8639-.0883,5.8821-.0883.53,0,.79.0883.79.3491.0883,5.4929-.0883,10.8092-.0883,19.524,0,12.1172.1766,30.8547.2648,40.705,0,.4373-.353.61-1.8456.61-3.246,0-7.2864-.1726-11.15-.2608a.4645.4645,0,0,1-.5256-.5216c0-5.3164.3531-14.2959.3531-28.4153,0-8.5423-.0883-14.3842-.7021-31.6412,0-.2608.1725-.4333.5256-.4333.79,0,4.2129.1725,6.4959.1725" transform="translate(0 0)" style="fill:#13a538"/><path d="M456.5229,122.51c.2649-3.1377,0-6.36,0-9.5012,0-.2608.1766-.5216.618-.5216,1.8416-.0883,3.6873-.0883,5.4407-.0883,3.1617,0,6.2351.0883,8.6947.3491a89.2378,89.2378,0,0,1,.0842-13.682c-2.8086.1725-5.529.2608-8.0768.2608-1.93,0-4.3012-.0883-5.97-.1766-.8747-.0842-1.1395-.2608-1.1395-.9589-.0883-2.6161.1725-6.5361,0-8.8031-.0883-.7824,0-1.308.5256-1.308,2.1947-.0842,4.6543-.0842,6.849-.0842a59.08,59.08,0,0,1,7.1139.349c-.0883-4.6222,0-12.8153.1725-14.6449a111.7844,111.7844,0,0,1-12.9919.6981c-.6139,0-.967-.2608-.967-.7864,0-3.1377-.3531-6.5361-.2648-10.0228,0-.4333.1766-.7824.7022-.7824,4.3894.2608,8.43.2608,12.6428.2608a10.1686,10.1686,0,0,1,5.7978,2.1787c4.9151,3.4867,8.3416,9.1521,8.3416,14.2919,0,7.3225-3.5148,10.1993-8.9595,13.5977,6.9373,4.1849,9.4852,7.6716,9.4852,13.4253,0,7.5833-3.5108,11.68-8.783,15.5116a5.988,5.988,0,0,1-3.7716,1.308c-2.1105,0-8.3416.0883-14.9258.1766-.4414,0-.618-.5256-.618-1.0472m-16.7674,1.308c-.5257,0-.7022-.1725-.7022-.61,0-2.7.4373-10.9817.4373-31.2038,0-3.6593-.3491-9.0639-.3491-15.953,0-3.7435.0883-8.0167.3491-11.7642.0883-1.22.53-1.4805,1.1435-1.4805,3.6874,0,7.3747,0,11.3228.0843.3531,0,.53.1765.53.8746-.1766,14.4645-.6139,21.2654-.3531,34.6906.1765,4.7907.0882,10.1953.2648,24.5755,0,.6139-.4414.6981-1.2318.6981-4.65.0883-8.9515.0883-11.411.0883" transform="translate(0 0)" style="fill:#13a538"/><path d="M518.5117,123.468c0-4.9672.0883-8.0166.0883-10.7209,0-.3491.1766-.5216.3531-.5216,3.5108,0,6.6725,0,7.4629.0882,0-14.9057-.2648-27.6328-.2648-33.7316,0-5.8419.5256-14.3841.5256-15.3431,0-.3491.1766-.5216.7062-.5216,3.4225,0,10.4441.0883,12.0249.0883.79,0,.79.5216.79,3.3984,0,7.5833-.79,24.58-.79,37.3909,0,12.9-6.2351,17.3452-11.2385,19.873a6.2268,6.2268,0,0,1-2.46.6982c-1.93,0-4.2129,0-6.845-.1726-.2648,0-.3531-.2608-.3531-.5256m-4.3894-10.9817c0,3.4867.1765,6.9734.1765,10.6326,0,.2648-.0883.5256-.4414.5256-1.7534-.0882-3.6833,0-5.7937,0-.7022,0-1.4926.0883-2.1065.0883a4.4308,4.4308,0,0,1-2.1065-.5256c-6.4959-4.2691-9.9225-10.9817-9.9225-23.6205,0-8.6306-.1765-10.2836-.1765-16.2981,0-6.8009.2648-13.4252.2648-20.05,0-.5216.1765-.6941.5256-.6941,1.6691,0,5.0074.0843,7.9926.0843,1.4925,0,2.8969-.0843,3.86-.0843.53,0,.7022.1725.7022.4333,0,14.7293-.6139,37.3066-.8747,49.2473.79-.0883,3.9521-.1766,7.2864-.1766.349,0,.6139.0883.6139.4374" transform="translate(0 0)" style="fill:#13a538"/><path d="M573.0781,100.4593c2.46-2.8768,5.7938-7.3225,7.5512-9.9385.7021-.9589.963-.6941,1.2278-.0842,5.7055,12.9838,11.0619,26.1483,13.5215,32.7726.1765.4333.1765.61-.4374.6982-1.4966.0842-2.9851.1725-4.4777.1725-2.7244,0-5.533-.1725-7.9925-.1725a1.2508,1.2508,0,0,1-1.2278-.6982c-2.283-6.2753-5.0034-13.5978-6.7608-17.8709-1.4043-3.4867-2.0182-4.1848-1.4043-4.879m-5.4447-.1765c-.2648,0-.5256-.3491-.5256-.8707-.0883-5.0555-.2648-8.1931-.0883-12.9879.0883-1.48-.1765-3.31.6139-4.4456,4.8308-6.7086,8.8672-12.29,12.4663-18.0394.53-.7864.967-1.308,1.7574-1.308,4.1287,0,8.2533-.1766,12.2055,0,1.4043.0882,1.4925.349,1.1394.8706-4.0363,6.0988-16.5066,21.791-26.6016,35.91-.4414.61-.7022.8707-.967.8707m-5.0033,23.448c-2.8969.1766-9.6577.1766-12.8194.1766a.2313.2313,0,0,1-.2608-.2649c0-18.4767.9629-40.0068.5256-59.9681,0-.6942.0883-.955.7021-.955a103.0034,103.0034,0,0,1,11.6759,0c.79.0843.8787.1726.8787,1.6531,0,4.883,0,12.29-.4414,31.4646-.4373,17.9552-.0842,23.1873.0923,27.3721,0,.3491-.0923.5216-.353.5216" transform="translate(0 0)" style="fill:#13a538"/><path d="M629.2767,86.862a3.5237,3.5237,0,0,1,0-1.9179c1.4043-4.0083,3.7756-12.4623,5.2682-16.1255.1765-.4374.3491-.7865.5256-.7865s.3531.1766.4374.4374c1.9339,5.9262,4.8308,14.0351,7.0255,20.92,3.4226,10.721,6.0586,20.0456,10.0108,33.3826.1765.5216.0882.7824-.1766.8706a9.4215,9.4215,0,0,1-2.8086.2608c-1.6691,0-3.6873-.1725-7.2021-.1725-2.1065,0-2.6321,0-2.8086-.61-2.1948-8.1049-8.3417-29.5507-10.2716-36.2593m-16.5949,37.13c-1.14,0-2.1948-.1725-4.1248-.1725-3.25,0-5.6212,0-7.2021-.1766-.4373-.0882-.5256-.2608-.349-.8706,2.632-9.24,6.5842-21.53,10.5363-33.3826,2.3713-7.495,5.0916-15.6881,8.9556-26.3248.1725-.4333.5256-.6941,1.4042-.61,1.7534.1766,6.496.1766,9.2163.2608.4414,0,.53.6139.3532,1.2238-3.9522,11.5033-7.7278,22.6576-11.4151,36.2593,2.4595,0,4.8308,0,6.6725-.0882,1.4925-.0883,1.6691,0,1.8457.4333a95.4694,95.4694,0,0,1,2.72,9.762c.1766.3491-.0883.5256-.7022.5256-1.8416,0-3.599.0843-5.7938.0843-2.7243,0-5.0033-.0843-7.6394-.0843-1.316,5.1438-2.1948,8.6265-3.246,12.4623-.0883.4373-.2648.6981-1.2317.6981" transform="translate(0 0)" style="fill:#13a538"/><path d="M668.565,112.1376c2.8969-.1725,7.3747-.3491,11.8524-.3491,3.0735,0,6.1469.0883,8.779.3491-.1726-3.1376-.0883-8.0206-.0883-11.7641,0-.2648.2648-.4374.53-.5256,4.213,0,7.5472.0882,11.7642.0882.5256,0,.79.1726.79.61,0,9.9345-2.72,17.0845-10.1833,22.5733a3.3356,3.3356,0,0,1-2.0222.6982c-7.5512.0883-16.944-.1766-21.5984-.0883a3.2223,3.2223,0,0,1-2.4555-.7824c-8.3416-6.9734-10.448-15.5156-10.448-26.3248,0-.5216.1725-1.0473.5256-1.0473,3.4225-.345,10.6206,0,12.3779,0,.53,0,.6139.1766.6139.959-.0842,5.32-.2608,10.5484-.4373,15.6039m-3.7756-48.2a3.7412,3.7412,0,0,1,2.8969-1.22c2.46-.1765,5.8821-.1765,10.1833-.1765,5.533,0,9.6576-.1725,11.5033-.1725a6.0627,6.0627,0,0,1,2.8969.8706c8.43,4.1849,9.3969,15.0783,9.3969,22.4891,0,.61-.53.7824-1.32.7824-3.2459,0-6.9333.1765-10.8854.1765-.4374,0-.7021-.1765-.7021-.5256-.0883-2.612,0-8.1931.2647-12.2857-3.9521.0843-7.6394.1725-11.1542.1725-2.9852,0-5.8821-.0882-9.1281-.2608.1766,5.2281.1766,10.5444.1766,15.949,0,.8747-.1766,1.3963-.79,1.3963-3.7755,0-7.29-.0883-12.1171-.0883-.4414,0-.5256-.349-.5256-.8706,0-9.5012,2.8969-20.2222,9.3045-26.2366" transform="translate(0 0)" style="fill:#13a538"/><path d="M749.4286,62.5449c.4413,0,.7021.0843.79.5216.5256,3.7475.0883,9.4129.0883,10.8934a.4149.4149,0,0,1-.4374.4374c-5.9743.0883-13.4332.0883-19.8449,0a.6444.6444,0,0,1-.7022-.6982c0-3.5709-.349-7.3224-.0883-9.9345.0883-.7864.3531-.9589.79-.9589,14.661,0,18.1758-.2608,19.4036-.2608m-15.54,60.9231c-4.566,0-5.0074-.1725-5.0916-.61a35.5726,35.5726,0,0,1-.2648-4.9672c0-2.5278.0882-4.7947.0882-5.2321,0-.3451.0883-.4333.3532-.4333h2.5437c2.6321,0,5.5331.0882,8.0768.0882,5.7938,0,7.3747-.2648,8.9556-.2648.79,0,1.0552.1766,1.1435.8747a29.5067,29.5067,0,0,1,.2608,4.6182c0,2.0062.0882,3.3984.0882,4.883,0,.7824-.1725,1.0432-1.316,1.1315-3.8639.3491-11.7641-.0883-14.8376-.0883m-9.8341-.8707c0,.5256-.5257.7864-1.1436.7864-3.4225,0-6.7567.1726-10.7972.1726-.7021,0-.8786-.5216-.8786-1.308,0-14.0311.6138-31.7255.6138-44.276,0-9.3287-.1725-12.9037-.1725-14.2077,0-.5256.0883-.9589.5256-1.0472s7.0256.1726,11.8525.1726c.5256,0,.7021.2648.7021.6981,0,8.1932.0882,15.5156-.2648,23.36a47.2778,47.2778,0,0,0,5.7978.2608c4.8268,0,9.7459.1766,13.7823.1766,2.9852,0,4.3895-.1766,5.0074-.1766.6139,0,.79.2649.8747,1.7454.0882,1.4805.4413,6.6243.4413,9.0638,0,.6982-.2648.959-.79.959-8.0768,0-16.86-.7824-25.4622-.5216.3491,2.5277,0,12.9839-.0882,24.1421" transform="translate(0 0)" style="fill:#13a538"/><path d="M784.7246,100.4593c2.46-2.8768,5.7938-7.3225,7.5512-9.9385.7022-.9589.9669-.6941,1.2278-.0842,5.71,12.9838,11.062,26.1483,13.5215,32.7726.1765.4333.1765.61-.4373.6982-1.4926.0842-2.9852.1725-4.4778.1725-2.7244,0-5.533-.1725-7.9926-.1725a1.2507,1.2507,0,0,1-1.2277-.6982c-2.283-6.2753-5.0034-13.5978-6.7608-17.8709-1.4043-3.4867-2.0182-4.1848-1.4043-4.879m-5.4447-.1765c-.2608,0-.5256-.3491-.5256-.8707-.0883-5.0555-.2649-8.1931-.0883-12.9879.0883-1.48-.1766-3.31.6139-4.4456,4.8308-6.7086,8.8672-12.29,12.47-18.0394.5256-.7864.9629-1.308,1.7534-1.308,4.1287,0,8.2533-.1766,12.2055,0,1.4043.0882,1.4925.349,1.1434.8706-4.04,6.0988-16.5066,21.791-26.6057,35.91-.4373.61-.7021.8707-.9669.8707m-5.0034,23.448c-2.8969.1766-9.6577.1766-12.8194.1766a.2329.2329,0,0,1-.2608-.2649c0-18.4767.963-40.0068.5256-59.9681,0-.6942.0883-.955.7022-.955a103.0046,103.0046,0,0,1,11.6759,0c.79.0843.8786.1726.8786,1.6531,0,4.883,0,12.29-.4373,31.4646-.4413,17.9552-.0883,23.1873.0883,27.3721,0,.3491-.0883.5216-.3531.5216" transform="translate(0 0)" style="fill:#13a538"/><path d="M422.7488,79.0733c0-13.3089.2648-21.4218.1324-29.8076,0-.3972-.3972-.53-1.2-.53-3.0573,0-66.091.1324-69.1483.1324-3.4627,0-8.6506-.2648-9.85-.2648-.53,0-.7944.2648-.7944.662.9308,26.3489,1.0632,35.2643,1.0632,48.3044,0,21.5582-.5336,35.26-.5336,43.3812a.7034.7034,0,0,0,.7984.7944c5.854.1365,72.2138.4013,77.137.4013,2.2629,0,2.7925-.2648,2.7925-.9349-.1324-15.0342-.3972-43.642-.3972-62.1388m-41.688,45.5639c-2.6,0-6.183.2688-8.8713.2688-.8947,0-.987-.0923-1.1676-.7182-2.5077-6.9894-5.0154-13.353-7.0777-19.3554-2.2389-6.6324-5.2883-12.7271-7.4388-18.6413-.3572-1.0713-.2689-1.34.7182-1.34,2.5077,0,4.0323.0883,6.183.0883,1.1635,0,5.3765-.0883,6.0947-.0883.5376,0,.8065.1765.8947.5336,1.5247,5.1077,7.5271,24.5555,11.9166,38.3538.1806.7182.3611.8988-1.2518.8988m29.9279-62.0987C406.15,73.56,401.76,83.0575,398.2656,92.1053c-3.583,9.1441-7.4388,18.28-11.2024,27.6008-.6259,1.5246-.983,1.1675-1.1636.3611-1.0753-4.6624-3.4064-10.3077-5.0194-15.953-.1765-.626.0883-1.3442.8065-3.2259,2.9571-7.2583,6.7206-15.949,9.3206-23.3,2.5077-6.8972,4.9271-12.2737,5.6453-14.4243.4494-1.2559.7183-1.3441,1.7895-1.3441,3.7676,0,9.6778.1765,12.0972.1765.4494,0,.5417.1806.4494.5417" transform="translate(0 0)" style="fill:#13a538"/></svg>